<?xml version="1.0" ?><svg height="40px" version="1.1" viewBox="0 0 40 40" width="40px" xmlns="http://www.w3.org/2000/svg" xmlns:xlink="http://www.w3.org/1999/xlink"><title/><desc/><defs/><g fill="none" fill-rule="evenodd" id="Iconfinder" stroke="none" stroke-width="1"><g id="LinkedIn"><rect fill="#7AB0EF" height="36" id="Shadow" opacity="0.300000012" rx="4" width="36" x="4" y="4"/><path d="M7.55308996,4 C13.4301811,4 22.2458178,4 34,4 C35.1045695,4 36,4.8954305 36,6 L36,34 C36,35.1045695 35.1045695,36 34,36 L6,36 C4.8954305,36 4,35.1045695 4,34 C4,22.7513278 4,14.3148237 4,8.69048756" id="Rectangle-57" stroke="#113E73" stroke-linecap="round" stroke-linejoin="round" stroke-width="4"/><path d="M14,28 C14,29.1045695 13.1045695,30 12,30 C10.8954305,30 10,29.1045695 10,28 L10,16.4891356 C10,15.3845661 10.8954305,14.4891356 12,14.4891356 C13.1045695,14.4891356 14,15.3845661 14,16.4891356 L14,28 Z" fill="#113E73" fill-rule="nonzero" id="Path"/><path d="M21,28 C21,29.1045695 20.1045695,30 19,30 C17.8954305,30 17,29.1045695 17,28 L17,16.4891356 C17,15.3845661 17.8954305,14.4891356 19,14.4891356 C20.1045695,14.4891356 21,15.3845661 21,16.4891356 L21,28 Z" fill="#113E73" fill-rule="nonzero" id="Path"/><circle cx="12" cy="11" fill="#113E73" id="Oval-39" r="2"/><path d="M24.392628,18.4915544 C24.1505103,18.4915544 23.7118155,18.6536995 23.1102274,19.045093 C22.357207,19.5350083 21.4632459,20.3140369 20.4479882,21.3796124 C19.6860493,22.1793142 18.4200894,22.209927 17.6203876,21.4479882 C16.8206858,20.6860493 16.790073,19.4200894 17.5520118,18.6203876 C20.1299742,15.9146574 22.3173432,14.4915544 24.392628,14.4915544 C27.556334,14.4915544 29.0594087,15.5772972 29.6596542,17.900904 C29.9193279,18.9061252 29.9769624,22.037343 29.8997361,28.0257896 C29.8854928,29.1302673 28.9785904,30.0140769 27.8741127,29.9998337 C26.769635,29.9855905 25.8858254,29.078688 25.9000686,27.9742104 C25.9688416,22.6412745 25.908689,19.3732475 25.7867891,18.9013617 C25.7230943,18.6547932 25.7132912,18.6207315 25.7462432,18.6409324 C25.635839,18.577169 25.2216678,18.4915544 24.392628,18.4915544 Z" fill="#113E73" fill-rule="nonzero" id="Path-33"/></g></g></svg>