<?xml version="1.0" encoding="utf-8" ?>
<svg xmlns="http://www.w3.org/2000/svg" xmlns:xlink="http://www.w3.org/1999/xlink" width="350" height="350">
	<path fill="#008EF5" transform="scale(0.341797 0.341797)" d="M0 918.342L-0 -0L1024 0L1024 917.39L1024 1024L738.061 1024L694.465 1024L667.579 1024L659.638 1024L524.64 1024L498.745 1024L358.634 1024L353.411 1024L325.671 1024L283.556 1024L-0 1024L0 918.342Z"/>
	<path fill="#EEA180" transform="scale(0.341797 0.341797)" d="M735.101 400.048C737.835 395.815 741.053 392.018 745.111 388.982C750.134 385.224 755.768 383.005 762.152 384.139C767.957 385.17 772.291 389.239 775.412 394.016C787.06 411.846 787.261 435.545 782.865 455.662C780.603 466.018 776.676 476.494 772.458 486.192C765.538 502.105 756.961 517.445 745.682 530.699C740.49 536.8 734.723 542.785 727.916 547.076C722.543 550.462 717.475 551.534 711.593 553.429C711.228 550.224 712.23 546.53 712.784 543.361L715.317 527.91C718.717 527.726 722.449 527.807 725.709 526.755C734.636 523.873 742.883 511.203 748.452 503.968C751.509 499.997 755.143 496.057 757.405 491.579C759.67 489.011 761.415 485.836 763.172 482.904C766.528 477.306 769.549 471.608 772.024 465.559C773.141 462.831 774.374 460.067 774.779 457.136L777.512 441.239C776.398 439.09 776.387 436.184 776.1 433.785C776.091 428.297 775.876 420.911 772.312 416.453L771.75 415.781L772.419 414.65C769.665 413.204 766.193 413.144 763.25 414.124C759.937 415.226 756.951 417.474 754.26 419.632C743.558 428.211 735.207 440.563 729.586 453C728.535 455.324 727.191 460.295 725.408 461.912L731.099 422.222C732.205 414.857 733.066 407.21 735.101 400.048Z"/>
	<path fill="#D27B60" transform="scale(0.341797 0.341797)" d="M772.419 414.65C775.174 416.29 776.448 419.187 777.258 422.182C778.557 426.981 779.05 436.499 777.512 441.239C776.398 439.09 776.387 436.184 776.1 433.785C776.091 428.297 775.876 420.911 772.312 416.453L771.75 415.781L772.419 414.65Z"/>
	<path fill="#D27B60" transform="scale(0.341797 0.341797)" d="M725.408 461.912C727.191 460.295 728.535 455.324 729.586 453C735.207 440.563 743.558 428.211 754.26 419.632C756.951 417.474 759.937 415.226 763.25 414.124C766.193 413.144 769.665 413.204 772.419 414.65L771.75 415.781L772.312 416.453C775.876 420.911 776.091 428.297 776.1 433.785C776.387 436.184 776.398 439.09 777.512 441.239L774.779 457.136C774.374 460.067 773.141 462.831 772.024 465.559C769.549 471.608 766.528 477.306 763.172 482.904C761.415 485.836 759.67 489.011 757.405 491.579C755.143 496.057 751.509 499.997 748.452 503.968C742.883 511.203 734.636 523.873 725.709 526.755C722.449 527.807 718.717 527.726 715.317 527.91L721.396 486.089C722.267 480.068 722.854 473.805 724.521 467.948C724.528 466.089 724.339 463.491 725.408 461.912Z"/>
	<path fill="#AD5A47" transform="scale(0.341797 0.341797)" d="M776.1 433.785C776.387 436.184 776.398 439.09 777.512 441.239L774.779 457.136C774.457 455.003 774.911 453.428 774.954 451.34L775.044 438.102L775.717 438.614L776.1 433.785Z"/>
	<path fill="#994941" transform="scale(0.341797 0.341797)" d="M725.408 461.912C727.191 460.295 728.535 455.324 729.586 453C735.207 440.563 743.558 428.211 754.26 419.632C756.951 417.474 759.937 415.226 763.25 414.124C766.193 413.144 769.665 413.204 772.419 414.65L771.75 415.781L772.312 416.453C775.876 420.911 776.091 428.297 776.1 433.785L775.717 438.614L775.044 438.102C774.913 435.538 774.831 433.238 773.934 430.801C773.085 428.491 771.89 425.726 769.649 424.475C768.151 423.639 764.97 423.841 763.42 424.462C760.283 425.719 757.253 428.262 754.64 430.363L743.022 440.386C752.473 455.029 752.234 471.76 749.419 488.431C748.498 493.886 746.427 499.247 744.606 504.459L744.517 504.459C743.996 503.154 744.8 501.482 745.178 500.117C748.417 488.424 748.461 474.552 745.556 462.797C744.584 458.867 742.124 452.454 738.34 450.37C737.238 449.762 736.68 449.521 735.5 450.041C734.228 450.602 733.096 452.209 732.321 453.291C729.288 457.529 726.461 463.101 724.521 467.948C724.528 466.089 724.339 463.491 725.408 461.912Z"/>
	<path fill="#E5916F" transform="scale(0.341797 0.341797)" d="M724.521 467.948C726.461 463.101 729.288 457.529 732.321 453.291C733.096 452.209 734.228 450.602 735.5 450.041C736.68 449.521 737.238 449.762 738.34 450.37C742.124 452.454 744.584 458.867 745.556 462.797C748.461 474.552 748.417 488.424 745.178 500.117C744.8 501.482 743.996 503.154 744.517 504.459L744.606 504.459C744.842 505.247 744.823 505.64 744.735 506.496L744.625 507.375L754.878 494C755.651 492.927 756.352 492.367 757.405 491.579C755.143 496.057 751.509 499.997 748.452 503.968C742.883 511.203 734.636 523.873 725.709 526.755C722.449 527.807 718.717 527.726 715.317 527.91L721.396 486.089C722.267 480.068 722.854 473.805 724.521 467.948Z"/>
	<path fill="#EEA180" transform="scale(0.341797 0.341797)" d="M312.513 551.469C304.363 548.736 296.364 543.35 289.777 537.919C260.744 513.983 242.666 475.333 238.832 438.25C237.382 424.233 238.743 407.293 247.379 395.594C250.978 390.718 256.158 386.97 262.25 386.128C267.719 385.371 272.807 387.059 277.166 390.335C283.232 394.896 288.131 401.154 291.25 408.05L292.624 411.866L307.254 512.646L309.285 525.864L312.513 551.469Z"/>
	<path fill="#D27B60" transform="scale(0.341797 0.341797)" d="M250.918 429.529L252.75 427.028L257.85 426.433L257.602 426.992C255.977 430.779 255.511 434.746 254.87 438.783C253.207 449.244 255.748 462.322 258.723 472.383C258.945 473.132 260.192 476.528 259.691 476.978C254.385 465.293 251.301 452.597 250.647 439.786C250.482 436.552 250.175 432.695 250.918 429.529Z"/>
	<path fill="#994941" transform="scale(0.341797 0.341797)" d="M250.918 429.529C251.456 424.555 252.177 419.135 256.25 415.665C258.986 413.334 262.476 412.152 266.056 412.596C272.386 413.382 279.239 419.667 282.851 424.628C286.877 430.157 290.036 436.34 292.878 442.543C294.259 445.556 295.884 448.707 296.567 451.961L296.158 452.804C294.926 452.479 294.058 450.721 293.316 449.665C290.622 445.836 288.088 441.883 285.131 438.245C282.289 434.749 279.506 431.394 275.64 428.998L269.899 425.957C264.819 423.829 262.703 424.445 257.85 426.433L252.75 427.028L250.918 429.529Z"/>
	<path fill="#D27B60" transform="scale(0.341797 0.341797)" d="M275.64 428.998C279.506 431.394 282.289 434.749 285.131 438.245C288.088 441.883 290.622 445.836 293.316 449.665C294.058 450.721 294.926 452.479 296.158 452.804L296.567 451.961L297.036 453.248C290.069 460.182 284.533 467.247 284.585 477.688C284.631 487.107 287.401 496.093 293.25 503.543L293.693 504.114C297.039 508.312 301.64 511.264 306.319 513.75C307.147 513.367 306.78 513.68 307.254 512.646L309.285 525.864C302.201 524.044 296.968 519.882 291.806 514.92C277.374 501.045 267.808 479.293 267.419 459.25C267.211 448.49 267.747 437.167 275.64 428.998Z"/>
	<path fill="#471925" transform="scale(0.341797 0.341797)" d="M285.742 248.395C286.369 242.212 288.779 235.68 290.528 229.719C300.918 194.311 319.963 162.758 345.813 136.483C379.641 102.099 426.617 78.9958 474.25 71.6949C486.811 69.7696 499.305 69.1342 511.997 69.0452C524.795 69.3753 537.442 69.9099 550.118 71.8767C600.197 79.6467 646.695 103.804 681.594 140.584C702.222 162.324 717.155 187.854 727.327 215.989C731.597 227.074 735.183 239.722 736.825 251.533C721.966 237.529 704.872 225.632 687.598 214.813C682.571 210.451 675.992 207.021 670.35 203.449C667.134 201.413 663.228 198.318 659.707 197.035C645.696 203.262 630.581 207.771 615.854 211.994C589.943 219.424 564.284 225.465 537.597 229.38C529.219 230.609 520.46 232.305 511.972 231.99L511.628 232.053C472.132 229.777 433.173 220.254 395.578 208.323L374 200.977C369.416 199.27 364.813 197.071 360.064 195.883L333.348 213.573L289.583 245.321L285.742 248.395Z"/>
	<path fill="#582F34" transform="scale(0.341797 0.341797)" d="M289.583 245.321C289.463 244.97 289.575 245.217 288.995 244.759C288.351 245.453 288.163 245.609 287.25 246C287.255 245.037 287.189 245.442 287.457 244.493L290.246 234.36C293.249 231.935 294.371 227.657 296.332 224.396L305.776 209.813C310.527 202.903 316.066 196.334 321.996 190.41C334.926 177.491 350.305 167.262 366.303 158.554C411.259 134.083 460.917 122.432 511.957 122.379L511.972 231.99L511.628 232.053C472.132 229.777 433.173 220.254 395.578 208.323L374 200.977C369.416 199.27 364.813 197.071 360.064 195.883L333.348 213.573L289.583 245.321Z"/>
	<defs>
		<linearGradient id="gradient_0" gradientUnits="userSpaceOnUse" x1="586.28937" y1="746.05365" x2="495.90918" y2="251.71121">
			<stop offset="0" stop-color="#3E0D19"/>
			<stop offset="1" stop-color="#74484B"/>
		</linearGradient>
	</defs>
	<path fill="url(#gradient_0)" transform="scale(0.341797 0.341797)" d="M687.598 214.813C704.872 225.632 721.966 237.529 736.825 251.533C738.254 256.78 738.658 262.357 739.2 267.75C740.395 279.621 740.542 291.245 740.596 303.162C740.692 324.371 740.528 345.512 738.646 366.655L736.075 389.529C735.692 392.777 734.729 396.817 735.101 400.048C733.066 407.21 732.205 414.857 731.099 422.222L725.408 461.912C724.339 463.491 724.528 466.089 724.521 467.948C722.854 473.805 722.267 480.068 721.396 486.089L715.317 527.91L712.784 543.361C712.23 546.53 711.228 550.224 711.593 553.429L711.261 554L701.583 610.08C701.305 611.808 699.635 613.025 698.458 614.217L689.077 623.36C686.325 624.892 684.347 626.684 682.107 628.862L670.426 641.642L664.085 650.426C661.305 653.253 659.015 657.067 656.039 659.57L655.312 660.142C653.114 661.931 651.26 664.372 649.354 666.47L638.665 678.162L592.155 726.859C585.464 733.785 579.256 741.764 571.88 747.929C568.646 750.632 564.998 752.708 560.944 753.905C554.3 755.866 547.384 755.422 540.539 755.414L512.714 755.37L445.131 755.491L366.292 657.901L365.789 655.087L361.407 649.918C358.47 646.135 342.31 625.523 339.321 624.349C335.733 621.108 332.575 616.625 329.462 612.909C326.257 609.084 318.648 602.036 317.937 597.259L312.513 551.469L309.285 525.864L307.254 512.646L292.624 411.866L293.106 410.7C299.484 416.283 305.645 422.419 312.794 426.999C313.769 427.624 314.045 428.391 314.55 429.395L321.457 471.229L333.308 545.542L335.827 560.955C335.999 561.872 336.2 564.615 336.662 565.311C337.626 566.764 339.728 568.373 340.994 569.633L354.072 582.427L403.774 631.417L408.669 609.637C409.757 604.693 410.587 598.708 412.973 594.233C414.344 591.663 416.811 589.413 419.251 587.867C422.58 585.759 426.648 584.317 430.27 582.72C447.27 575.223 465.486 570.062 483.157 564.342C485.718 564.948 488.179 566.301 490.594 567.337C495.275 569.346 499.894 571.283 504.116 574.183C505.932 575.43 510.329 579.73 512.336 579.824L513.822 578.724L514.719 577.918C517.063 575.882 519.651 573.544 522.321 571.968C526.821 569.313 532.288 567.659 537.26 566.155C538.958 565.642 541.027 564.76 542.799 564.893C549.013 567.544 555.656 569.237 562.117 571.185L588.726 579.706C592.968 581.143 597.805 582.395 601.75 584.523C612.125 590.12 614.535 600.692 616.701 611.222C618.194 618.482 619.309 625.856 621.221 633.017L686.176 569.801L699.943 499.429L708.162 458.65C708.716 455.321 708.691 451.682 708.955 448.305L710.72 429.982L717.349 369.173L719.71 346.517C719.914 344.647 721.025 340.397 720.691 338.784C720.619 338.438 719.646 337.261 719.443 336.967L714.899 330.461L691.673 296.012L687.68 290.062C687.363 289.587 686.204 288.212 686.1 287.699C685.763 286.042 686.303 283.128 686.331 281.37L686.821 259.923L687.598 214.813Z"/>
	<path fill="#02060C" transform="scale(0.341797 0.341797)" d="M682.107 628.862C685.176 623.924 689.993 619.291 693.955 615.028C695.571 613.289 698.014 611.165 698.859 608.931C702.204 600.08 706.551 557.413 710.209 553.736L710.692 553.25L711.261 554L701.583 610.08C701.305 611.808 699.635 613.025 698.458 614.217L689.077 623.36C686.325 624.892 684.347 626.684 682.107 628.862Z"/>
	<path fill="#02060C" transform="scale(0.341797 0.341797)" d="M670.426 641.642L664.085 650.426C661.305 653.253 659.015 657.067 656.039 659.57L655.312 660.142C653.114 661.931 651.26 664.372 649.354 666.47L638.665 678.162L592.155 726.859C585.464 733.785 579.256 741.764 571.88 747.929C568.646 750.632 564.998 752.708 560.944 753.905C554.3 755.866 547.384 755.422 540.539 755.414L512.714 755.37L445.131 755.491L366.292 657.901L365.789 655.087L445.963 752.8L513.288 753.114L538.877 753.172C544.386 753.176 550.167 753.443 555.63 752.699L556.5 752.57C560.722 751.965 564.978 750.714 568.359 748.018L569 747.494C578.452 739.847 586.416 729.615 594.748 720.747L620.025 694.778L654.962 658.28C660.141 653.047 664.498 646.748 670.07 641.941L670.426 641.642Z"/>
	<path fill="#FAC1A6" transform="scale(0.341797 0.341797)" d="M512.247 640.658L477.72 640.78C482.963 649.362 489.042 658.47 492.789 667.803C492.194 670.673 491.47 673.167 490.049 675.75C485.055 684.828 474.15 691.834 464.349 694.559L420.619 647.877L430.231 606.451C432.246 605.479 434.748 605.203 436.947 604.709L448.154 601.97L487.096 592.112C495.331 590.073 503.47 587.666 511.94 586.832L512.006 602.611C512.009 604.059 512.385 606.776 511.5 607.865L508.221 608.44L442.75 618.099L442.25 618.858C445.896 619.797 449.676 619.736 453.412 619.959L478.146 620.631L511.867 621.008L512.247 640.658Z"/>
	<path fill="#EEA180" transform="scale(0.341797 0.341797)" d="M511.94 586.832L512.896 587.105L531.403 591.411L576.224 602.356C582.635 603.98 589.844 605.055 595.972 607.438C598.604 616.335 599.776 625.556 601.666 634.619C602.598 639.086 604.766 644.734 604.636 649.227L573.094 681.454L564.595 690.254C563.07 691.847 561.581 693.724 559.759 694.969C549.633 691.445 536.799 683.24 532.024 673.288C530.752 670.636 529.848 669.308 530.851 666.521C534.048 657.639 539.832 648.815 544.879 640.832L512.247 640.658L511.867 621.008L478.146 620.631L453.412 619.959C449.676 619.736 445.896 619.797 442.25 618.858L442.75 618.099L508.221 608.44L511.5 607.865C512.385 606.776 512.009 604.059 512.006 602.611L511.94 586.832Z"/>
	<path fill="#AD5A47" transform="scale(0.341797 0.341797)" d="M508.221 608.44C527.332 608.342 546.435 612.32 565.25 615.338C570.757 616.222 577.384 616.368 582.575 618.25L582.495 618.876C577.706 620.372 571.572 620.034 566.557 620.271L511.867 621.008L478.146 620.631L453.412 619.959C449.676 619.736 445.896 619.797 442.25 618.858L442.75 618.099L508.221 608.44Z"/>
	<path fill="#EEA180" transform="scale(0.341797 0.341797)" d="M511.972 231.99C520.46 232.305 529.219 230.609 537.597 229.38C564.284 225.465 589.943 219.424 615.854 211.994C630.581 207.771 645.696 203.262 659.707 197.035C663.228 198.318 667.134 201.413 670.35 203.449C675.992 207.021 682.571 210.451 687.598 214.813L686.821 259.923L686.331 281.37C686.303 283.128 685.763 286.042 686.1 287.699C686.204 288.212 687.363 289.587 687.68 290.062L691.673 296.012L714.899 330.461L719.443 336.967C719.646 337.261 720.619 338.438 720.691 338.784C721.025 340.397 719.914 344.647 719.71 346.517L717.349 369.173L710.72 429.982L708.955 448.305C708.691 451.682 708.716 455.321 708.162 458.65L699.943 499.429L686.176 569.801L621.221 633.017C619.309 625.856 618.194 618.482 616.701 611.222C614.535 600.692 612.125 590.12 601.75 584.523C597.805 582.395 592.968 581.143 588.726 579.706L562.117 571.185C555.656 569.237 549.013 567.544 542.799 564.893C541.027 564.76 538.958 565.642 537.26 566.155C532.288 567.659 526.821 569.313 522.321 571.968C519.651 573.544 517.063 575.882 514.719 577.918L513.822 578.724L512.336 579.824C510.329 579.73 505.932 575.43 504.116 574.183C499.894 571.283 495.275 569.346 490.594 567.337C488.179 566.301 485.718 564.948 483.157 564.342L482.812 564.101C473.861 557.613 470.671 548.532 469.075 538.019L469.549 537.023L470.093 537.266C479.558 541.413 489.898 543.095 498.727 548.772C503.564 551.882 507.222 556.149 511.841 559.505C512.14 557.5 512.579 555.441 512.454 553.411C511.827 551.135 512.039 548.568 512.022 546.212L512.005 532.946L512.042 488.278L511.995 317.463L511.839 258C511.776 249.43 512.259 240.571 511.628 232.053L511.972 231.99Z"/>
	<path fill="#AD5A47" transform="scale(0.341797 0.341797)" d="M512.454 553.411C515.656 550.096 518.681 547.087 522.5 544.459L522.751 544.988C519.318 547.812 516.294 550.442 513.209 553.672C513.102 555.046 512.814 556.434 513.25 557.755C515.639 555.68 517.368 553.278 519.625 551.125C522.822 548.075 526.638 546.258 530.625 544.503L531.25 544.255L536.003 542.503L537 542.378L537.75 541.755C539.014 541.755 538.491 541.882 539.626 541.394C540.156 541.167 541.016 541.003 541.5 540.755L542.25 540.255L543 540.5C543.971 539.727 544.901 539.605 546.033 539.182L547.25 538.755C548.716 538.508 547.391 538.994 548.484 538.587L555.118 536.237L555.625 536.003L557.234 535.302L557.955 536.509L557.685 537.86L555.441 547.78C553.842 554.408 548.337 561.087 542.799 564.893C541.027 564.76 538.958 565.642 537.26 566.155C532.288 567.659 526.821 569.313 522.321 571.968C519.651 573.544 517.063 575.882 514.719 577.918L513.822 578.724L512.336 579.824C510.329 579.73 505.932 575.43 504.116 574.183C499.894 571.283 495.275 569.346 490.594 567.337C488.179 566.301 485.718 564.948 483.157 564.342L482.812 564.101C473.861 557.613 470.671 548.532 469.075 538.019L469.549 537.023L470.093 537.266C479.558 541.413 489.898 543.095 498.727 548.772C503.564 551.882 507.222 556.149 511.841 559.505C512.14 557.5 512.579 555.441 512.454 553.411Z"/>
	<path fill="#994941" transform="scale(0.341797 0.341797)" d="M557.955 536.509L557.685 537.86C555.574 538.035 553.089 539.414 551.2 540.321L536.93 547.738C530.215 550.922 523.283 554.053 516.237 556.411C518.094 554.079 520.573 551.295 523.033 549.615C528.52 545.868 535.228 543.954 541.471 541.892C546.922 540.092 552.408 537.949 557.955 536.509Z"/>
	<path fill="#D27B60" transform="scale(0.341797 0.341797)" d="M469.075 538.019C473.932 540.18 478.453 543.413 482.998 546.181C490.661 550.849 498.797 555.193 505.605 561.086C508.702 563.767 511.116 566.778 513.624 569.995C513.329 573.049 513.028 575.715 513.822 578.724L512.336 579.824C510.329 579.73 505.932 575.43 504.116 574.183C499.894 571.283 495.275 569.346 490.594 567.337C488.179 566.301 485.718 564.948 483.157 564.342L482.812 564.101C473.861 557.613 470.671 548.532 469.075 538.019Z"/>
	<path fill="#FFFEFE" transform="scale(0.341797 0.341797)" d="M570.476 419.073C569.963 416.473 574.491 409.839 575.991 407.586C583.242 396.698 594.165 388.096 607.198 385.571C620.824 382.931 636.529 384.331 648.205 392.293C655.471 397.248 660.408 404.468 662.06 413.137L653.176 422.739C651.879 424.133 650.543 426.007 648.753 426.74C647.847 427.112 646.746 428.562 646.011 429.286C644.236 431.035 642.353 432.689 640.359 434.183C629.574 442.259 615.463 445.944 602.103 443.892C593.536 442.576 584.799 438.194 578.75 431.982C575.466 428.608 572.833 424.565 570.098 420.75L570.476 419.073Z"/>
	<path fill="#0E3296" transform="scale(0.341797 0.341797)" d="M585.522 403.926C586.636 403.538 587.112 403.423 588.255 403.75L589.179 405.302C589.97 408.748 590.548 410.525 593.411 412.808L593.416 413.073L594.822 414.705C592.026 415.488 589.991 416.66 587.7 418.418C586.879 419.048 586.146 419.405 585.214 419.84C584.293 414.964 584.356 410.698 585.733 405.897C585.989 405.004 585.782 404.792 585.522 403.926Z"/>
	<path fill="#008EF5" transform="scale(0.341797 0.341797)" d="M624.631 404.254C622.891 399.02 619.241 396.34 614.783 393.51C619.834 393.434 625.688 393.432 630.586 394.71L630.417 395.536L630.803 396.016C634.788 401.06 636.462 408.397 635.68 414.774C634.785 422.077 630.384 428.741 624.646 433.227C619.384 437.34 612.137 438.561 605.641 437.61C599.086 436.65 593.139 432.985 589.232 427.65C587.474 425.248 586.289 422.601 585.214 419.84C586.146 419.405 586.879 419.048 587.7 418.418C589.991 416.66 592.026 415.488 594.822 414.705C595.608 416.395 596.121 418.314 597.194 419.844C599.434 423.039 603.424 424.967 607.25 425.398C611.653 425.894 616.692 424.24 620.083 421.414C623.786 418.329 625.036 414.76 625.588 410.178L624.631 404.254Z"/>
	<path fill="#73C0E5" transform="scale(0.341797 0.341797)" d="M624.631 404.254C626.46 403.456 627.731 402.842 629.75 403.035C630.59 404.669 631.062 405.928 631.336 407.75C630.464 409.18 629.941 409.582 628.25 409.959L625.588 410.178L624.631 404.254Z"/>
	<path fill="#02060C" transform="scale(0.341797 0.341797)" d="M570.476 419.073C569.963 416.473 574.491 409.839 575.991 407.586C583.242 396.698 594.165 388.096 607.198 385.571C620.824 382.931 636.529 384.331 648.205 392.293C655.471 397.248 660.408 404.468 662.06 413.137L653.176 422.739C651.879 424.133 650.543 426.007 648.753 426.74C652.098 422.668 654.535 418.533 656.847 413.798C654.128 411.859 653.168 409.396 651.314 406.755C646.684 400.158 638.101 396.574 630.586 394.71C625.688 393.432 619.834 393.434 614.783 393.51C619.241 396.34 622.891 399.02 624.631 404.254L625.588 410.178C625.036 414.76 623.786 418.329 620.083 421.414C616.692 424.24 611.653 425.894 607.25 425.398C603.424 424.967 599.434 423.039 597.194 419.844C596.121 418.314 595.608 416.395 594.822 414.705L593.416 413.073L593.411 412.808C590.548 410.525 589.97 408.748 589.179 405.302L588.255 403.75C587.112 403.423 586.636 403.538 585.522 403.926C579.681 407.67 574.13 413.14 570.476 419.073Z"/>
	<path fill="#FFFEFE" transform="scale(0.341797 0.341797)" d="M589.179 405.302C590.061 402.857 590.94 401.255 593.424 400.2C595.289 399.408 597.437 399.592 599.25 400.45C600.718 401.145 601.52 402.163 602.362 403.502C602.823 406.315 602.723 408.583 600.883 410.917C599.986 412.055 598.248 413.366 596.75 413.461C595.753 413.523 594.727 413.261 593.748 413.108L593.416 413.073L593.411 412.808C590.548 410.525 589.97 408.748 589.179 405.302Z"/>
	<path fill="#141C29" transform="scale(0.341797 0.341797)" d="M651.389 335.25L652.727 335.106C658.734 339.314 664.018 345.861 668.865 351.358L690.836 375.994C694.887 380.59 698.756 385.873 703.271 389.995L703.689 390.367L703.5 390.818C699.862 388.598 696.717 385.349 693.392 382.672C689.991 379.933 686.279 377.635 682.535 375.399C676.607 371.858 668.594 367.761 661.75 366.589C657.052 365.785 651.388 367.239 646.75 367.984L601.383 377.619C592.93 379.559 584.498 382.241 576.2 384.752C564.502 388.292 553.887 391.113 543.423 397.584L545.165 361.489L651.389 335.25Z"/>
	<path fill="#FAC1A6" transform="scale(0.341797 0.341797)" d="M333.348 213.573L360.064 195.883C364.813 197.071 369.416 199.27 374 200.977L395.578 208.323C433.173 220.254 472.132 229.777 511.628 232.053C512.259 240.571 511.776 249.43 511.839 258L511.995 317.463L512.042 488.278L512.005 532.946L512.022 546.212C512.039 548.568 511.827 551.135 512.454 553.411C512.579 555.441 512.14 557.5 511.841 559.505C507.222 556.149 503.564 551.882 498.727 548.772C489.898 543.095 479.558 541.413 470.093 537.266L469.549 537.023L469.075 538.019C470.671 548.532 473.861 557.613 482.812 564.101L483.157 564.342C465.486 570.062 447.27 575.223 430.27 582.72C426.648 584.317 422.58 585.759 419.251 587.867C416.811 589.413 414.344 591.663 412.973 594.233C410.587 598.708 409.757 604.693 408.669 609.637L403.774 631.417L354.072 582.427L340.994 569.633C339.728 568.373 337.626 566.764 336.662 565.311C336.2 564.615 335.999 561.872 335.827 560.955L333.308 545.542L321.457 471.229L314.55 429.395C314.045 428.391 313.769 427.624 312.794 426.999C305.645 422.419 299.484 416.283 293.106 410.7L292.624 411.866L291.25 408.05C292.671 405.195 290.74 396.532 290.403 393.15L286.691 354.749C284.578 328.312 283.429 301.5 284.143 274.978L285.742 248.395L289.583 245.321L333.348 213.573Z"/>
	<path fill="#02060C" transform="scale(0.341797 0.341797)" d="M378.733 431.733L377.75 431.479C376.819 431.07 375.506 429.58 374.75 428.825C371.075 425.157 366.987 420.269 366.193 414.947C366.033 413.873 366.052 413.626 365.5 412.639C363.968 413.32 362.55 414.633 361.217 415.661C363.176 407.992 368.562 401.533 374.404 396.382C384.143 387.795 397.149 383.15 410.141 383.907C421.953 384.594 433.188 389.473 441.066 398.464C443.989 401.801 452.896 414.278 452.618 418.44C447.12 411.307 441.945 405.417 433.923 401.079L430.979 399.454C419.027 393.365 406.336 391.875 393.476 395.99C384.456 398.226 374.443 403.077 369.129 411.011C368.064 416.297 371.414 421.948 374.274 426.224L378.733 431.733Z"/>
	<path fill="#FFFEFE" transform="scale(0.341797 0.341797)" d="M378.733 431.733L374.274 426.224C371.414 421.948 368.064 416.297 369.129 411.011C374.443 403.077 384.456 398.226 393.476 395.99L393.279 396.734C392.752 398.47 391.103 399.702 390.175 401.25C386.161 407.948 386.154 417.16 389.526 424.108C392.364 429.956 397.853 434.684 404.044 436.666C410.465 438.721 417.295 437.962 423.177 434.688C429.101 431.391 433.514 425.343 435.238 418.814C436.961 412.292 434.904 407.346 433.923 401.079C441.945 405.417 447.12 411.307 452.618 418.44C452.662 418.879 452.869 419.332 452.75 419.757C452.588 420.333 451.533 421.42 451.12 421.995C449.638 424.058 448.359 426.308 446.749 428.273C439.509 437.108 426.893 443.519 415.602 444.44C411.793 444.75 407.783 444.727 404 444.175L403.026 444.04C396.047 443.048 388.192 439.632 382.651 435.278C381.573 434.431 379.843 432.158 378.733 431.733Z"/>
	<path fill="#008EF5" transform="scale(0.341797 0.341797)" d="M393.476 395.99C406.336 391.875 419.027 393.365 430.979 399.454L433.923 401.079C434.904 407.346 436.961 412.292 435.238 418.814C433.514 425.343 429.101 431.391 423.177 434.688C417.295 437.962 410.465 438.721 404.044 436.666C397.853 434.684 392.364 429.956 389.526 424.108C386.154 417.16 386.161 407.948 390.175 401.25C391.103 399.702 392.752 398.47 393.279 396.734L393.476 395.99Z"/>
	<path fill="#FFFEFE" transform="scale(0.341797 0.341797)" d="M397.178 409.335C395.426 409.659 394.027 409.758 392.25 409.593C391.047 408.783 390.459 408.189 390.037 406.75C389.657 405.456 389.861 403.658 390.526 402.5C391.563 400.695 392.05 400.287 394 399.634C396.768 400.041 397.354 401.015 398.947 403.156C398.538 405.339 398.008 407.274 397.178 409.335Z"/>
	<path fill="#02060C" transform="scale(0.341797 0.341797)" d="M398.947 403.156C399.769 401.058 400.598 400.024 402.692 399.076C406.752 397.238 411.848 396.936 416.062 398.324L416.671 398.514C419.205 399.357 420.606 401.359 421.966 403.533C423.846 403.629 425.172 403.447 426.617 404.88C427.817 406.069 427.966 406.876 428.088 408.5C427.347 410.006 426.826 410.588 425.484 411.597L425.496 412.288C425.209 416.07 422.871 420.025 420.197 422.608C417.418 425.294 414.263 426.727 410.378 426.588C406.345 426.444 402.33 423.794 399.778 420.802C396.59 417.062 396.793 413.883 397.178 409.335C398.008 407.274 398.538 405.339 398.947 403.156Z"/>
	<path fill="#FFFEFE" transform="scale(0.341797 0.341797)" d="M421.966 403.533C423.846 403.629 425.172 403.447 426.617 404.88C427.817 406.069 427.966 406.876 428.088 408.5C427.347 410.006 426.826 410.588 425.484 411.597C423.696 411.589 421.948 411.746 420.576 410.413C419.543 409.411 419.229 407.889 419.461 406.5C419.703 405.057 420.876 404.339 421.966 403.533Z"/>
	<path fill="#141C29" transform="scale(0.341797 0.341797)" d="M372.842 336.507L478.454 361.283L481.662 398.007C469.511 389.3 453.199 386.066 438.963 382.265L397.025 372.261C389.28 370.382 381.016 367.824 373.119 366.906C356.898 365.02 340.837 372.469 326.728 379.319C327.761 377.223 331.156 374.633 332.861 372.93L372.842 336.507Z"/>
	<path fill="#8A6F6C" transform="scale(0.341797 0.341797)" d="M289.583 245.321L333.348 213.573C333.534 221.466 337.285 287.666 336.878 288.685C335.86 291.235 332.872 294.395 331.185 296.707L309.682 326.01C308.795 327.245 305.631 330.915 305.378 332.142C305.009 333.929 305.84 337.631 306.025 339.527L308.134 361.266L314.55 429.395C314.045 428.391 313.769 427.624 312.794 426.999C305.645 422.419 299.484 416.283 293.106 410.7L292.624 411.866L291.25 408.05C292.671 405.195 290.74 396.532 290.403 393.15L286.691 354.749C284.578 328.312 283.429 301.5 284.143 274.978L285.742 248.395L289.583 245.321Z"/>
	<defs>
		<linearGradient id="gradient_1" gradientUnits="userSpaceOnUse" x1="678.35657" y1="672.9585" x2="808.88354" y2="973.62634">
			<stop offset="0" stop-color="#01006E"/>
			<stop offset="1" stop-color="#0201FF"/>
		</linearGradient>
	</defs>
	<path fill="url(#gradient_1)" transform="scale(0.341797 0.341797)" d="M682.107 628.862C684.347 626.684 686.325 624.892 689.077 623.36C693.867 626.432 699.904 628.387 705.087 630.829C715.979 635.96 726.996 641.448 737.385 647.539C792.284 677.061 841.611 719.676 882.437 766.556C878.742 772.406 843.918 821.642 842.363 822.049C840.004 825.96 835.852 830.058 834.361 834.273L864.017 847.127L1024 917.39L1024 1024L738.061 1024L694.465 1024L667.579 1024L659.638 1024C660.729 1019.79 662.365 1015.66 663.677 1011.5L672.504 983.055L682.011 946.499C686.541 928.09 690.72 909.908 693.073 891.05C695.07 874.081 696.061 857.259 696.206 840.173C696.233 837.063 697.046 831.68 695.575 829.001C694.849 827.113 692.85 825.592 691.414 824.189L680.244 813.693L657.497 791.902L656.768 726.383L655.98 671.547L656.039 659.57C659.015 657.067 661.305 653.253 664.085 650.426L670.426 641.642L682.107 628.862Z"/>
	<path fill="#02060C" transform="scale(0.341797 0.341797)" d="M694.465 1024C700.075 1015.04 707.15 1006.61 713.355 998.006L766.953 925.261L820.65 852.252L829.309 840.533C830.834 838.431 832.312 835.878 834.361 834.273L864.017 847.127C863.006 851.57 858.482 856.282 855.833 860.083L832.75 892.59L779.528 966.5L738.061 1024L694.465 1024Z"/>
	<path fill="#000076" transform="scale(0.341797 0.341797)" d="M682.107 628.862C684.347 626.684 686.325 624.892 689.077 623.36C693.867 626.432 699.904 628.387 705.087 630.829C715.979 635.96 726.996 641.448 737.385 647.539C734.888 651.72 730.497 655.171 727.009 658.539L712.489 672.67C713.394 673.517 713.905 673.954 715.003 674.497C719.708 676.827 724.304 679.753 728.921 682.297C739.408 688.077 749.61 694.08 759.357 701.055C763.876 704.29 768.527 707.58 772.388 711.604C777.281 716.707 781.334 722.884 782.812 729.865C785.362 741.913 783.57 753.669 780.943 765.522C777.429 781.377 772.02 796.409 765.704 811.349C762.513 818.897 758.518 826.483 755.816 834.179L667.579 1024L659.638 1024C660.729 1019.79 662.365 1015.66 663.677 1011.5L672.504 983.055L682.011 946.499C686.541 928.09 690.72 909.908 693.073 891.05C695.07 874.081 696.061 857.259 696.206 840.173C696.233 837.063 697.046 831.68 695.575 829.001C694.849 827.113 692.85 825.592 691.414 824.189L680.244 813.693L657.497 791.902L656.768 726.383L655.98 671.547L656.039 659.57C659.015 657.067 661.305 653.253 664.085 650.426L670.426 641.642L682.107 628.862Z"/>
	<path fill="#010148" transform="scale(0.341797 0.341797)" d="M664.085 650.426C666.036 652.237 668.348 653.082 670.713 654.239L687.057 661.437L704.443 669.476C706.683 670.536 710.208 671.564 711.967 673.196L656.768 726.383L655.98 671.547L656.039 659.57C659.015 657.067 661.305 653.253 664.085 650.426Z"/>
	<path fill="#141C29" transform="scale(0.341797 0.341797)" d="M864.017 847.127L1024 917.39L1024 1024L738.061 1024L779.528 966.5L832.75 892.59L855.833 860.083C858.482 856.282 863.006 851.57 864.017 847.127Z"/>
	<defs>
		<linearGradient id="gradient_2" gradientUnits="userSpaceOnUse" x1="332.62302" y1="667.48059" x2="213.13716" y2="980.6261">
			<stop offset="0" stop-color="#00007F"/>
			<stop offset="1" stop-color="#0302FF"/>
		</linearGradient>
	</defs>
	<path fill="url(#gradient_2)" transform="scale(0.341797 0.341797)" d="M339.321 624.349C342.31 625.523 358.47 646.135 361.407 649.918L365.789 655.087L366.292 657.901L366.08 731.77L366.054 792.97L338.884 817.326C336.349 819.649 331.285 823.39 330.032 826.5C330.12 827.986 330.097 829.513 330.595 830.929C329.665 838.284 330.228 846.167 330.3 853.59L330.543 890.915L358.634 1024L353.411 1024L325.671 1024L283.556 1024L-0 1024L0 918.342L158.825 845.517L187.536 832.034L187.486 831.003C185.679 829.367 184.249 826.914 182.821 824.917L174.864 813.945L139.101 766.45L170.137 733.18C203.847 700.421 243.731 671.535 285.369 649.796C302.304 639.439 321.167 632.203 339.321 624.349Z"/>
	<path fill="#02060C" transform="scale(0.341797 0.341797)" d="M187.536 832.034C190.468 833.806 193.259 838.861 195.333 841.662L213.345 866.478L242.27 906.532L304.219 992.249C311.389 1002.56 320.03 1012.76 325.671 1024L283.556 1024L158.825 845.517L187.536 832.034Z"/>
	<path fill="#000076" transform="scale(0.341797 0.341797)" d="M339.321 624.349C342.31 625.523 358.47 646.135 361.407 649.918L365.789 655.087L366.292 657.901L366.08 731.77L366.054 792.97L338.884 817.326C336.349 819.649 331.285 823.39 330.032 826.5C330.12 827.986 330.097 829.513 330.595 830.929C329.665 838.284 330.228 846.167 330.3 853.59L330.543 890.915L358.634 1024L353.411 1024L271.71 839.965C271.397 838.188 269.972 835.785 269.199 834.108L263.407 821.566L222.117 733.557L245.535 714.44C256.964 705.75 268.829 697.885 281.004 690.29L298.5 680.058C302.275 678.061 307.903 676.278 311.103 673.529L311.615 673.064L285.369 649.796C302.304 639.439 321.167 632.203 339.321 624.349Z"/>
	<path fill="#010148" transform="scale(0.341797 0.341797)" d="M361.407 649.918L365.789 655.087L366.292 657.901L366.08 731.77C359.734 723.224 353.912 714.318 346.81 706.351C336.089 694.324 323.455 684.119 311.844 672.983C313.715 670.904 320.165 669.086 322.986 667.798L346.568 656.586C350.965 654.691 357.802 652.965 361.407 649.918Z"/>
	<path fill="#141C29" transform="scale(0.341797 0.341797)" d="M0 918.342L158.825 845.517L283.556 1024L-0 1024L0 918.342Z"/>
	<path fill="#02060C" transform="scale(0.341797 0.341797)" d="M366.292 657.901L445.131 755.491L512.714 755.37L540.539 755.414C547.384 755.422 554.3 755.866 560.944 753.905C564.998 752.708 568.646 750.632 571.88 747.929C579.256 741.764 585.464 733.785 592.155 726.859L638.665 678.162L649.354 666.47C651.26 664.372 653.114 661.931 655.312 660.142L656.039 659.57L655.98 671.547L656.768 726.383L657.497 791.902L680.244 813.693L691.414 824.189C692.85 825.592 694.849 827.113 695.575 829.001C697.046 831.68 696.233 837.063 696.206 840.173C696.061 857.259 695.07 874.081 693.073 891.05C690.72 909.908 686.541 928.09 682.011 946.499L672.504 983.055L663.677 1011.5C662.365 1015.66 660.729 1019.79 659.638 1024L524.64 1024L498.745 1024L358.634 1024L330.543 890.915L330.3 853.59C330.228 846.167 329.665 838.284 330.595 830.929C330.097 829.513 330.12 827.986 330.032 826.5C331.285 823.39 336.349 819.649 338.884 817.326L366.054 792.97L366.08 731.77L366.292 657.901Z"/>
	<path fill="#141C29" transform="scale(0.341797 0.341797)" d="M693.073 891.05C690.72 909.908 686.541 928.09 682.011 946.499L672.504 983.055L663.677 1011.5C662.365 1015.66 660.729 1019.79 659.638 1024L524.64 1024C528.238 1020.7 532.201 1017.87 536.006 1014.82L561.736 994.69L611.116 955.483L660.624 915.978L681.006 899.903C684.908 896.905 688.842 893.557 693.073 891.05Z"/>
	<path fill="#141C29" transform="scale(0.341797 0.341797)" d="M330.543 890.915C331.498 891.053 332.136 891.18 332.95 891.736C337.278 894.687 341.378 898.263 345.5 901.509L369.5 920.528L427.165 966.034L477 1006.04C484.286 1011.99 491.813 1017.63 498.745 1024L358.634 1024L330.543 890.915Z"/>
	<path fill="#FAC1A6" transform="scale(0.341797 0.341797)" d="M366.292 657.901L445.131 755.491L512.714 755.37C511.544 762.739 512.006 770.684 511.986 778.143L512.012 811.5L512.845 812.257L511.824 812.555L511.697 927.317L511.934 962.988L511.981 974.259C511.969 976.551 512.174 978.922 511.429 981.113L511.032 981.504C503.567 976.842 496.691 969.776 490.035 964.02L461.312 940.122L370.798 865.165L330.595 830.929C330.097 829.513 330.12 827.986 330.032 826.5C331.285 823.39 336.349 819.649 338.884 817.326L366.054 792.97L366.08 731.77L366.292 657.901Z"/>
	<defs>
		<linearGradient id="gradient_3" gradientUnits="userSpaceOnUse" x1="391.21927" y1="828.69" x2="457.28073" y2="711.31">
			<stop offset="0" stop-color="#AE5B4B"/>
			<stop offset="1" stop-color="#C86C4B"/>
		</linearGradient>
	</defs>
	<path fill="url(#gradient_3)" transform="scale(0.341797 0.341797)" d="M366.292 657.901L445.131 755.491L512.714 755.37C511.544 762.739 512.006 770.684 511.986 778.143L512.012 811.5L512.845 812.257L511.824 812.555L494.107 811.863C480.295 810.794 467.096 808.067 453.749 804.455C456.877 813.502 487.735 890.326 487.25 891.64L451.25 827.067L431.648 792.182L398.188 738.069C388.25 722.51 378.678 705.263 366.447 691.442L366.528 723.693L366.28 765.933L366.412 783.926C366.433 786.435 366.861 789.825 366.254 792.236L366.054 792.97L366.08 731.77L366.292 657.901Z"/>
	<path fill="#E5916F" transform="scale(0.341797 0.341797)" d="M656.039 659.57L655.98 671.547L656.768 726.383L657.497 791.902L680.244 813.693L691.414 824.189C692.85 825.592 694.849 827.113 695.575 829.001C688.62 836.336 679.845 842.628 672.021 849.084L635.7 879.554L546.653 953.4L524.112 971.631C520.012 974.99 516.033 978.701 511.728 981.783L511.032 981.504L511.429 981.113C512.174 978.922 511.969 976.551 511.981 974.259L511.934 962.988L511.697 927.317L511.824 812.555L512.845 812.257L512.012 811.5L511.986 778.143C512.006 770.684 511.544 762.739 512.714 755.37L540.539 755.414C547.384 755.422 554.3 755.866 560.944 753.905C564.998 752.708 568.646 750.632 571.88 747.929C579.256 741.764 585.464 733.785 592.155 726.859L638.665 678.162L649.354 666.47C651.26 664.372 653.114 661.931 655.312 660.142L656.039 659.57Z"/>
	<path fill="#AD5A47" transform="scale(0.341797 0.341797)" d="M656.039 659.57L655.98 671.547L655.75 671.905L537.25 895.172C537.17 894.865 537.006 894.568 537.011 894.25C537.021 893.555 538.148 891.556 538.461 890.75L544.236 875.576L558.571 835.016C562.802 823.417 567.684 811.745 571.007 799.868L529.279 809.15C523.866 810.254 518.332 811.654 512.845 812.257L512.012 811.5L511.986 778.143C512.006 770.684 511.544 762.739 512.714 755.37L540.539 755.414C547.384 755.422 554.3 755.866 560.944 753.905C564.998 752.708 568.646 750.632 571.88 747.929C579.256 741.764 585.464 733.785 592.155 726.859L638.665 678.162L649.354 666.47C651.26 664.372 653.114 661.931 655.312 660.142L656.039 659.57Z"/>
</svg>
