<?xml version="1.0" ?><svg height="40px" version="1.1" viewBox="0 0 40 40" width="40px" xmlns="http://www.w3.org/2000/svg" xmlns:xlink="http://www.w3.org/1999/xlink"><title/><desc/><defs/><g fill="none" fill-rule="evenodd" id="Iconfinder" stroke="none" stroke-linejoin="round" stroke-width="1"><g id="Twitter" stroke-width="4"><path d="M26.5800353,11.2531365 C25.0831057,11.8162117 23.9958144,12.7352025 23.3181614,14.0101088 C22.6405084,15.2850151 22.4620803,16.7472929 22.782877,18.3969421 C20.2879312,18.2387354 17.9575828,17.6108238 15.7918318,16.5132074 C13.6260808,15.4155911 11.7341826,13.9036412 10.1161372,11.9773579 C9.34572395,13.6798482 9.11346652,15.191798 9.41936487,16.5132074 C9.72526322,17.8346168 10.5894571,19.0524849 12.0119466,20.1668115 C11.5531512,20.1902958 11.0821913,20.1369895 10.599067,20.0068928 C10.1159427,19.876796 9.656207,19.6794826 9.21985986,19.4149525 C9.23142369,20.9419296 9.65174021,22.2152664 10.4808094,23.2349628 C11.3098786,24.2546593 12.548828,25.0221022 14.1976576,25.5372915 C13.8559158,25.7972604 13.4320466,25.9369771 12.9260502,25.9564416 C12.4200537,25.9759061 11.9044762,25.8723278 11.3793178,25.6457066 C11.8574471,26.9690079 12.5741591,27.9756885 13.5294539,28.6657483 C14.4847487,29.3558082 15.714256,29.7549846 17.2179759,29.8632776 C16.0484972,30.8485383 14.6914635,31.5588646 13.1468746,31.9942565 C11.6022858,32.4296485 9.94524605,32.5689355 8.17575541,32.4121177 C11.0608872,34.2768006 14.0749607,35.2091421 17.2179759,35.2091421 C21.9324988,35.2091421 25.2664814,33.5672137 27.1155152,32.4121177 C28.9645491,31.2570217 31.3269167,29.1717552 33.1582517,25.5372915 C34.3791417,23.1143157 34.9526145,20.2703442 34.8786699,17.0053769 C35.5060735,16.5502949 36.0787354,16.0470396 36.5966555,15.4956112 C37.1145756,14.9441828 37.568877,14.3540325 37.9595598,13.7251601 C37.3778626,13.9765025 36.8006554,14.1784785 36.2279382,14.3310884 C35.655221,14.4836982 35.2054649,14.5758351 34.8786699,14.6074993 C35.253787,14.274666 35.6757509,13.8134619 36.1445615,13.2238869 C36.6133722,12.634312 36.9533081,11.9773951 37.1643694,11.2531365 C36.40493,11.6842336 35.7260351,12.0115883 35.1276848,12.2352005 C34.5293345,12.4588128 33.89676,12.6215734 33.2299613,12.7234823 C32.1587112,11.8023851 31.0959993,11.2252938 30.0418258,10.9922086 C28.9876522,10.7591233 27.833722,10.8460993 26.5800353,11.2531365 Z" fill="#7AB0EF" id="Shadow" opacity="0.300000012" stroke="#7AB0EF"/><path d="M19.7953597,12.3952432 C19.6496647,13.0086456 19.6455037,14.0092119 19.782877,15.3969421 C17.2879312,15.2387354 14.9575828,14.6108238 12.7918318,13.5132074 C10.6260808,12.4155911 8.73418256,10.9036412 7.11613716,8.9773579 C6.34572395,10.6798482 6.11346652,12.191798 6.41936487,13.5132074 C6.72526322,14.8346168 7.58945713,16.0524849 9.01194658,17.1668115 C8.55315116,17.1902958 8.0821913,17.1369895 7.59906701,17.0068928 C7.11594271,16.876796 6.656207,16.6794826 6.21985986,16.4149525 C6.23142369,17.9419296 6.65174021,19.2152664 7.48080942,20.2349628 C8.30987863,21.2546593 9.54882802,22.0221022 11.1976576,22.5372915 C10.8559158,22.7972604 10.4320466,22.9369771 9.92605016,22.9564416 C9.42005367,22.9759061 8.90447623,22.8723278 8.37931784,22.6457066 C8.85744708,23.9690079 9.5741591,24.9756885 10.5294539,25.6657483 C11.4847487,26.3558082 12.714256,26.7549846 14.2179759,26.8632776 C13.0484972,27.8485383 11.6914635,28.5588646 10.1468746,28.9942565 C8.60228579,29.4296485 6.94524605,29.5689355 5.17575541,29.4121177 C8.06088722,31.2768006 11.0749607,32.2091421 14.2179759,32.2091421 C18.9324988,32.2091421 22.2664814,30.5672137 24.1155152,29.4121177 C25.9645491,28.2570217 28.3269167,26.1717552 30.1582517,22.5372915 C31.3791417,20.1143157 31.9526145,17.2703442 31.8786699,14.0053769 C32.5060735,13.5502949 33.0787354,13.0470396 33.5966555,12.4956112 C34.1145756,11.9441828 34.568877,11.3540325 34.9595598,10.7251601 C34.3778626,10.9765025 33.8006554,11.1784785 33.2279382,11.3310884 C32.655221,11.4836982 32.2054649,11.5758351 31.8786699,11.6074993 C32.253787,11.274666 32.6757509,10.8134619 33.1445615,10.2238869 C33.6133722,9.63431197 33.9533081,8.97739514 34.1643694,8.25313646 C33.40493,8.68423359 32.7260351,9.01158828 32.1276848,9.23520052 C31.5293345,9.45881276 30.89676,9.62157335 30.2299613,9.72348228 C29.1587112,8.80238506 28.0959993,8.22529382 27.0418258,7.99220856 C25.9876522,7.75912331 24.833722,7.84609927 23.5800353,8.25313646" id="Path-30" stroke="#113E73" stroke-linecap="round"/></g></g></svg>